Normalized EMG Linear Envelopes
nRows=65
nColumns=17

endheader
time	        VM	        VL	        RF	       GRA	        TA	   ADDLONG	   SEMIMEM	      BFLH	        GM	        GL	       TFL	   GLUTMAX	   GLUTMED	      PIRI	    OBTINT	        QF	
2.69	  0.024784	  0.004425	  0.040290	  0.242460	  0.099573	  0.030320	  0.139350	  0.125602	  0.167594	  0.083917	  0.027814	  0.198683	  0.321178	  0.195420	  1.045642	  0.120298	
2.6905	  0.024407	  0.003920	  0.038062	  0.244112	  0.098858	  0.030536	  0.141485	  0.128020	  0.167496	  0.083119	  0.027053	  0.195462	  0.315775	  0.193568	  1.049220	  0.120965	
2.691	  0.024037	  0.003425	  0.035889	  0.245792	  0.098172	  0.030757	  0.143648	  0.130480	  0.167403	  0.082320	  0.026306	  0.192253	  0.310396	  0.191734	  1.052703	  0.121632	
2.6915	  0.023675	  0.002939	  0.033771	  0.247500	  0.097514	  0.030985	  0.145840	  0.132984	  0.167314	  0.081520	  0.025573	  0.189057	  0.305042	  0.189919	  1.056081	  0.122301	
2.692	  0.023321	  0.002462	  0.031707	  0.249234	  0.096883	  0.031219	  0.148060	  0.135530	  0.167230	  0.080718	  0.024854	  0.185876	  0.299716	  0.188124	  1.059346	  0.122971	
2.6925	  0.022975	  0.001994	  0.029698	  0.250994	  0.096280	  0.031458	  0.150307	  0.138120	  0.167152	  0.079917	  0.024149	  0.182710	  0.294419	  0.186349	  1.062487	  0.123642	
2.693	  0.022636	  0.001535	  0.027741	  0.252779	  0.095705	  0.031704	  0.152581	  0.140751	  0.167080	  0.079115	  0.023458	  0.179563	  0.289153	  0.184596	  1.065496	  0.124316	
2.6935	  0.022305	  0.001085	  0.025837	  0.254589	  0.095155	  0.031955	  0.154881	  0.143425	  0.167013	  0.078314	  0.022781	  0.176434	  0.283919	  0.182865	  1.068362	  0.124991	
2.694	  0.021982	  0.000643	  0.023985	  0.256424	  0.094632	  0.032212	  0.157207	  0.146141	  0.166954	  0.077513	  0.022117	  0.173325	  0.278719	  0.181158	  1.071077	  0.125670	
2.6945	  0.021667	  0.000210	  0.022183	  0.258281	  0.094135	  0.032476	  0.159559	  0.148898	  0.166901	  0.076713	  0.021466	  0.170238	  0.273555	  0.179475	  1.073630	  0.126351	
2.695	  0.021360	  0.000000	  0.020432	  0.260162	  0.093664	  0.032745	  0.161934	  0.151696	  0.166855	  0.075915	  0.020829	  0.167173	  0.268427	  0.177818	  1.076014	  0.127036	
2.6955	  0.021061	  0.000000	  0.018730	  0.262064	  0.093218	  0.033020	  0.164334	  0.154535	  0.166816	  0.075119	  0.020205	  0.164132	  0.263336	  0.176186	  1.078220	  0.127725	
2.696	  0.020770	  0.000000	  0.017077	  0.263987	  0.092796	  0.033302	  0.166757	  0.157415	  0.166786	  0.074326	  0.019595	  0.161116	  0.258285	  0.174582	  1.080239	  0.128417	
2.6965	  0.020486	  0.000000	  0.015473	  0.265929	  0.092399	  0.033589	  0.169203	  0.160335	  0.166763	  0.073535	  0.018997	  0.158125	  0.253274	  0.173005	  1.082065	  0.129114	
2.697	  0.020210	  0.000000	  0.013915	  0.267891	  0.092025	  0.033883	  0.171671	  0.163294	  0.166749	  0.072746	  0.018413	  0.155161	  0.248304	  0.171458	  1.083691	  0.129814	
2.6975	  0.019942	  0.000000	  0.012405	  0.269869	  0.091674	  0.034183	  0.174160	  0.166293	  0.166745	  0.071962	  0.017841	  0.152226	  0.243376	  0.169939	  1.085110	  0.130520	
2.698	  0.019682	  0.000000	  0.010941	  0.271864	  0.091347	  0.034488	  0.176670	  0.169331	  0.166749	  0.071181	  0.017282	  0.149319	  0.238491	  0.168451	  1.086319	  0.131230	
2.6985	  0.019430	  0.000000	  0.009522	  0.273874	  0.091041	  0.034800	  0.179200	  0.172408	  0.166764	  0.070404	  0.016735	  0.146441	  0.233651	  0.166993	  1.087313	  0.131946	
2.699	  0.019186	  0.000000	  0.008148	  0.275898	  0.090758	  0.035118	  0.181749	  0.175523	  0.166789	  0.069631	  0.016201	  0.143595	  0.228855	  0.165567	  1.088087	  0.132666	
2.6995	  0.018950	  0.000000	  0.006818	  0.277934	  0.090495	  0.035442	  0.184317	  0.178675	  0.166825	  0.068862	  0.015680	  0.140779	  0.224105	  0.164173	  1.088638	  0.133392	
2.7	  0.018722	  0.000000	  0.005532	  0.279981	  0.090254	  0.035772	  0.186902	  0.181865	  0.166873	  0.068099	  0.015170	  0.137996	  0.219402	  0.162811	  1.088963	  0.134123	
2.7005	  0.018502	  0.000000	  0.004288	  0.282037	  0.090034	  0.036108	  0.189505	  0.185093	  0.166933	  0.067340	  0.014673	  0.135246	  0.214746	  0.161483	  1.089059	  0.134860	
2.701	  0.018291	  0.000000	  0.003086	  0.284100	  0.089834	  0.036450	  0.192123	  0.188357	  0.167006	  0.066587	  0.014188	  0.132529	  0.210138	  0.160189	  1.088924	  0.135602	
2.7015	  0.018087	  0.000000	  0.001926	  0.286170	  0.089653	  0.036797	  0.194757	  0.191657	  0.167093	  0.065840	  0.013715	  0.129846	  0.205579	  0.158929	  1.088558	  0.136350	
2.702	  0.017893	  0.000000	  0.000806	  0.288246	  0.089492	  0.037152	  0.197405	  0.194993	  0.167192	  0.065098	  0.013253	  0.127199	  0.201069	  0.157704	  1.087960	  0.137104	
2.7025	  0.017706	  0.000000	  0.000000	  0.290325	  0.089349	  0.037512	  0.200068	  0.198365	  0.167306	  0.064363	  0.012804	  0.124587	  0.196609	  0.156514	  1.087131	  0.137864	
2.703	  0.017528	  0.000000	  0.000000	  0.292407	  0.089225	  0.037878	  0.202743	  0.201772	  0.167435	  0.063634	  0.012365	  0.122011	  0.192199	  0.155361	  1.086072	  0.138631	
2.7035	  0.017359	  0.000000	  0.000000	  0.294492	  0.089119	  0.038251	  0.205430	  0.205214	  0.167578	  0.062912	  0.011939	  0.119472	  0.187841	  0.154244	  1.084782	  0.139405	
2.704	  0.017198	  0.000000	  0.000000	  0.296578	  0.089030	  0.038630	  0.208129	  0.208689	  0.167737	  0.062196	  0.011523	  0.116969	  0.183535	  0.153163	  1.083265	  0.140188	
2.7045	  0.017046	  0.000000	  0.000000	  0.298666	  0.088959	  0.039016	  0.210838	  0.212199	  0.167911	  0.061488	  0.011118	  0.114505	  0.179281	  0.152120	  1.081521	  0.140979	
2.705	  0.016903	  0.000000	  0.000000	  0.300755	  0.088904	  0.039408	  0.213557	  0.215741	  0.168101	  0.060787	  0.010725	  0.112079	  0.175080	  0.151115	  1.079552	  0.141780	
2.7055	  0.016770	  0.000000	  0.000000	  0.302844	  0.088865	  0.039807	  0.216285	  0.219317	  0.168307	  0.060094	  0.010342	  0.109691	  0.170933	  0.150147	  1.077361	  0.142591	
2.706	  0.016645	  0.000000	  0.000000	  0.304934	  0.088843	  0.040213	  0.219023	  0.222925	  0.168529	  0.059408	  0.009971	  0.107342	  0.166839	  0.149217	  1.074950	  0.143413	
2.7065	  0.016530	  0.000000	  0.000000	  0.307022	  0.088836	  0.040626	  0.221768	  0.226565	  0.168767	  0.058731	  0.009609	  0.105032	  0.162800	  0.148326	  1.072321	  0.144247	
2.707	  0.016424	  0.000000	  0.000000	  0.309110	  0.088845	  0.041047	  0.224521	  0.230237	  0.169022	  0.058061	  0.009258	  0.102762	  0.158815	  0.147474	  1.069478	  0.145094	
2.7075	  0.016328	  0.000000	  0.000000	  0.311196	  0.088869	  0.041474	  0.227280	  0.233941	  0.169293	  0.057400	  0.008918	  0.100531	  0.154885	  0.146660	  1.066422	  0.145956	
2.708	  0.016242	  0.000000	  0.000000	  0.313279	  0.088907	  0.041909	  0.230046	  0.237676	  0.169581	  0.056746	  0.008588	  0.098341	  0.151010	  0.145885	  1.063159	  0.146832	
2.7085	  0.016166	  0.000000	  0.000000	  0.315361	  0.088959	  0.042351	  0.232816	  0.241441	  0.169886	  0.056101	  0.008267	  0.096191	  0.147190	  0.145149	  1.059691	  0.147723	
2.709	  0.016099	  0.000000	  0.000000	  0.317439	  0.089025	  0.042801	  0.235592	  0.245237	  0.170206	  0.055465	  0.007957	  0.094082	  0.143426	  0.144452	  1.056021	  0.148630	
2.7095	  0.016043	  0.000000	  0.000000	  0.319515	  0.089104	  0.043258	  0.238372	  0.249062	  0.170543	  0.054837	  0.007656	  0.092013	  0.139718	  0.143795	  1.052153	  0.149555	
2.71	  0.015998	  0.000000	  0.000000	  0.321588	  0.089196	  0.043723	  0.241155	  0.252915	  0.170896	  0.054218	  0.007365	  0.089986	  0.136065	  0.143177	  1.048092	  0.150497	
2.7105	  0.015962	  0.000000	  0.000000	  0.323658	  0.089300	  0.044196	  0.243943	  0.256798	  0.171266	  0.053607	  0.007084	  0.088000	  0.132468	  0.142600	  1.043840	  0.151457	
2.711	  0.015938	  0.000000	  0.000000	  0.325726	  0.089416	  0.044677	  0.246735	  0.260707	  0.171650	  0.053005	  0.006811	  0.086055	  0.128927	  0.142062	  1.039401	  0.152437	
2.7115	  0.015924	  0.000000	  0.000000	  0.327790	  0.089544	  0.045167	  0.249530	  0.264644	  0.172051	  0.052412	  0.006549	  0.084152	  0.125442	  0.141566	  1.034781	  0.153437	
2.712	  0.015921	  0.000000	  0.000000	  0.329852	  0.089682	  0.045664	  0.252329	  0.268607	  0.172466	  0.051827	  0.006295	  0.082291	  0.122013	  0.141111	  1.029982	  0.154457	
2.7125	  0.015929	  0.000000	  0.000000	  0.331910	  0.089831	  0.046171	  0.255131	  0.272596	  0.172896	  0.051251	  0.006050	  0.080471	  0.118641	  0.140697	  1.025009	  0.155498	
2.713	  0.015948	  0.000000	  0.000000	  0.333966	  0.089990	  0.046685	  0.257937	  0.276610	  0.173341	  0.050683	  0.005814	  0.078693	  0.115324	  0.140326	  1.019866	  0.156562	
2.7135	  0.015978	  0.000000	  0.000000	  0.336019	  0.090159	  0.047209	  0.260748	  0.280650	  0.173801	  0.050125	  0.005586	  0.076958	  0.112063	  0.139997	  1.014557	  0.157648	
2.714	  0.016019	  0.000000	  0.000000	  0.338069	  0.090337	  0.047742	  0.263562	  0.284715	  0.174274	  0.049574	  0.005367	  0.075264	  0.108858	  0.139711	  1.009086	  0.158758	
2.7145	  0.016072	  0.000000	  0.000000	  0.340116	  0.090524	  0.048284	  0.266381	  0.288803	  0.174760	  0.049033	  0.005157	  0.073613	  0.105709	  0.139468	  1.003458	  0.159893	
2.715	  0.016137	  0.000000	  0.000000	  0.342161	  0.090720	  0.048835	  0.269204	  0.292916	  0.175260	  0.048500	  0.004955	  0.072003	  0.102616	  0.139269	  0.997677	  0.161053	
2.7155	  0.016213	  0.000000	  0.000000	  0.344203	  0.090924	  0.049396	  0.272033	  0.297052	  0.175773	  0.047975	  0.004761	  0.070436	  0.099579	  0.139114	  0.991748	  0.162239	
2.716	  0.016301	  0.000000	  0.000000	  0.346243	  0.091136	  0.049966	  0.274868	  0.301212	  0.176298	  0.047459	  0.004575	  0.068911	  0.096597	  0.139003	  0.985676	  0.163451	
2.7165	  0.016401	  0.000000	  0.000000	  0.348279	  0.091356	  0.050547	  0.277708	  0.305393	  0.176835	  0.046952	  0.004397	  0.067428	  0.093670	  0.138937	  0.979468	  0.164691	
2.717	  0.016513	  0.000000	  0.000000	  0.350313	  0.091583	  0.051137	  0.280556	  0.309597	  0.177384	  0.046453	  0.004227	  0.065987	  0.090798	  0.138915	  0.973129	  0.165959	
2.7175	  0.016637	  0.000000	  0.000000	  0.352344	  0.091818	  0.051738	  0.283410	  0.313823	  0.177944	  0.045962	  0.004064	  0.064589	  0.087982	  0.138938	  0.966666	  0.167256	
2.718	  0.016774	  0.000000	  0.000000	  0.354371	  0.092059	  0.052350	  0.286271	  0.318069	  0.178514	  0.045480	  0.003909	  0.063232	  0.085220	  0.139007	  0.960086	  0.168583	
2.7185	  0.016924	  0.000000	  0.000000	  0.356394	  0.092307	  0.052972	  0.289140	  0.322335	  0.179095	  0.045007	  0.003761	  0.061918	  0.082512	  0.139121	  0.953395	  0.169939	
2.719	  0.017086	  0.000000	  0.000000	  0.358413	  0.092561	  0.053605	  0.292017	  0.326621	  0.179686	  0.044541	  0.003620	  0.060646	  0.079858	  0.139281	  0.946602	  0.171326	
2.7195	  0.017261	  0.000000	  0.000000	  0.360427	  0.092821	  0.054248	  0.294901	  0.330925	  0.180286	  0.044084	  0.003486	  0.059416	  0.077259	  0.139487	  0.939712	  0.172744	
2.72	  0.017449	  0.000000	  0.000000	  0.362436	  0.093087	  0.054903	  0.297794	  0.335248	  0.180895	  0.043635	  0.003360	  0.058228	  0.074713	  0.139738	  0.932735	  0.174194	
2.7205	  0.017651	  0.000000	  0.000000	  0.364439	  0.093357	  0.055569	  0.300696	  0.339587	  0.181513	  0.043193	  0.003240	  0.057082	  0.072220	  0.140036	  0.925678	  0.175676	
2.721	  0.017866	  0.000000	  0.000000	  0.366436	  0.093633	  0.056247	  0.303606	  0.343943	  0.182139	  0.042760	  0.003127	  0.055978	  0.069779	  0.140380	  0.918550	  0.177190	
2.7215	  0.018094	  0.000000	  0.000000	  0.368426	  0.093913	  0.056936	  0.306525	  0.348315	  0.182774	  0.042335	  0.003020	  0.054917	  0.067391	  0.140770	  0.911357	  0.178737	
2.722	  0.018336	  0.000000	  0.000000	  0.370409	  0.094197	  0.057637	  0.309453	  0.352702	  0.183416	  0.041917	  0.002920	  0.053897	  0.065056	  0.141206	  0.904108	  0.180317	
